<?xml version="1.0" encoding="utf-8"?>
<!-- Generator: Adobe Illustrator 16.0.4, SVG Export Plug-In . SVG Version: 6.00 Build 0)  -->
<!DOCTYPE svg PUBLIC "-//W3C//DTD SVG 1.1//EN" "http://www.w3.org/Graphics/SVG/1.1/DTD/svg11.dtd">
<svg version="1.1" id="Layer_1" xmlns="http://www.w3.org/2000/svg" xmlns:xlink="http://www.w3.org/1999/xlink" x="0px" y="0px"
	 width="180px" height="30px" viewBox="0 0 180 30" enable-background="new 0 0 180 30" xml:space="preserve">
<g id="NETOKRACIJA_1_">
	<g opacity="0.2">
		<polygon points="73.7,23.2 75.1,11.5 70.3,11.5 70.6,9 82.7,9 82.4,11.5 77.6,11.5 76.2,23.2 		"/>
		<path d="M121.3,23.2l0.2-1.3c0.2-1.4-0.3-2.7-1.3-3.6c0,0-0.1,0-0.1,0c-0.1,0-0.2,0-0.3,0h-4.4l-0.6,4.8h-2.6L113.9,9h7
			c1.2,0,2.4,0.5,3.1,1.4c0.8,0.9,1.1,2.1,1,3.3c-0.2,1.4-0.9,2.7-2.1,3.6l0,0l0,0c0.9,1.3,1.3,2.9,1.1,4.6l-0.2,1.3H121.3z
			 M115.7,15.8h4.4c1.2,0,2.3-1,2.4-2.1c0.1-0.6-0.1-1.1-0.5-1.5c-0.4-0.4-0.9-0.6-1.4-0.6h-4.4L115.7,15.8z"/>
		<path d="M106.5,23.2l0.2-1.3c0.2-1.7-0.6-3.4-2.1-4.1c-1,0.4-2.1,0.6-3.1,0.6c-0.1,0-0.1,0-0.2,0l-0.1,0l-0.1,0l-0.6,4.8H98
			L99.7,9h2.6l-0.8,6.8l0.2,0c0.1,0,0.1,0,0.2,0c3.1,0,5.9-2.5,6.2-5.6l0.2-1.3h2.6l-0.2,1.3c-0.3,2.3-1.5,4.5-3.4,6l-0.1,0l0,0
			c1.5,1.4,2.3,3.4,2,5.6l-0.2,1.3H106.5z"/>
		<polygon points="155.5,23.2 157.2,9 159.7,9 158,23.2 		"/>
		<path d="M163.1,9l-1.7,14c-0.2,2.1-2.2,3.8-4.2,3.8l-0.3,2.6c3.5,0,6.7-2.9,7.1-6.4l1.7-14H163.1z"/>
		<path d="M136.4,23.2l0.4-3.5h-6.7l-0.4,3.5h-2.6l1-8.3c0.4-3.3,3.4-5.9,6.6-5.9c1.6,0,3,0.6,4,1.7c1,1.1,1.4,2.6,1.2,4.2l-1,8.3
			H136.4z M134.4,11.5c-1.8,0-3.5,1.5-3.8,3.3l-0.3,2.3h6.7l0.3-2.2c0.1-0.9-0.1-1.7-0.7-2.4C136.1,11.9,135.3,11.5,134.4,11.5z"/>
		<path d="M176.4,23.2l0.4-3.5h-6.7l-0.4,3.5h-2.6l1-8.3c0.4-3.3,3.4-5.9,6.6-5.9c1.6,0,3,0.6,4,1.7c1,1.1,1.4,2.6,1.2,4.2l-1,8.3
			H176.4z M174.4,11.5c-1.8,0-3.5,1.5-3.7,3.3l-0.3,2.3h6.7l0.3-2.2c0.1-0.9-0.1-1.7-0.7-2.4C176.1,11.9,175.3,11.5,174.4,11.5z"/>
		<path d="M147.5,23.2c-1.6,0-3-0.6-4-1.7c-1-1.1-1.4-2.6-1.2-4.2l0.3-2.4c0.2-1.6,1-3.1,2.2-4.2c1.3-1.1,2.8-1.7,4.4-1.7
			c1.6,0,3,0.6,4,1.7l0.8,0.9l-2,1.8l-0.8-0.9c-0.6-0.6-1.4-1-2.3-1c-0.9,0-1.8,0.3-2.5,1c-0.7,0.6-1.2,1.5-1.3,2.4l-0.3,2.4
			c-0.1,0.9,0.1,1.7,0.7,2.4c0.6,0.6,1.4,1,2.3,1c0.9,0,1.8-0.3,2.5-1l1-0.9l1.6,1.8l-1,0.9C150.6,22.6,149.1,23.2,147.5,23.2z"/>
		<path d="M89.1,23.2c-1.6,0-3-0.6-4-1.7c-1-1.1-1.4-2.6-1.2-4.2l0.3-2.4c0.2-1.6,1-3.1,2.2-4.2C87.6,9.6,89.2,9,90.8,9
			c1.6,0,3,0.6,4,1.7c1,1.1,1.4,2.6,1.2,4.2l-0.3,2.4c-0.2,1.6-1,3.1-2.2,4.2C92.2,22.6,90.6,23.2,89.1,23.2z M90.4,11.5
			c-0.9,0-1.8,0.3-2.5,1c-0.7,0.6-1.2,1.5-1.3,2.4l-0.3,2.4c-0.1,0.9,0.1,1.7,0.7,2.4c0.6,0.6,1.4,1,2.3,1c0.9,0,1.8-0.3,2.5-1
			c0.7-0.6,1.2-1.5,1.3-2.4l0.3-2.4c0.1-0.9-0.1-1.7-0.7-2.4C92.1,11.9,91.3,11.5,90.4,11.5z"/>
		<polygon points="56.5,23.2 58.2,9 67.9,9 67.6,11.5 60.4,11.5 60,14.8 66.4,14.8 66.1,17.4 59.7,17.4 59.3,20.7 66.5,20.7 
			66.2,23.2 		"/>
		<polygon points="43.9,13.8 42.8,23.2 40.2,23.2 41.9,9 44.1,9 51.1,18.4 52.2,9 54.8,9 53.1,23.2 50.9,23.2 		"/>
		<path id="MARK_26_" d="M31.7,2.7l-0.3,2.2h0c-0.4,2-1.6,3.4-2.7,3.9c-2.2,1-5.6-0.8-8.9-2.6c-3-1.6-6.1-3.3-9-3.4
			c-2.4-0.1-4.4,0.6-6,1.9c-1.4,1.2-2.3,3-2.5,5L0,28.7h2.4l0.2-1.6c0.3-1.6,1.6-2.7,2.6-3.2c2.5-1.1,6.3,0.5,9.9,2.1
			c2.9,1.3,6,2.6,8.7,2.7c0.2,0,0.4,0,0.5,0c1.9,0,3.6-0.6,4.8-1.7c1.4-1.2,2.2-3,2.5-5.2l2.3-19.2H31.7z M24.3,26.4
			c-2.3-0.1-5.2-1.3-7.9-2.5c-4.2-1.8-8.2-3.7-11.9-2C4,22,3.6,22.3,3.2,22.6c0-0.1,0.2-5.8,6.1-5c2.2,0.3,4.7,1.5,7.1,2.6
			c0.9,0.4,1.9,0.9,2.9,1.3c0.2,1.1,1.1,1.9,2.2,1.9c0.6,0,1.1-0.2,1.5-0.6c0.5,0.1,0.9,0.2,1.4,0.2c1.2,0.1,3,0.2,5-1.2
			C29.3,21.9,29.4,26.5,24.3,26.4z M24.9,20.5c-0.4,0-0.9-0.1-1.3-0.2c-0.3-0.9-1.1-1.5-2.1-1.5c-0.5,0-0.9,0.1-1.2,0.4
			c-0.9-0.4-1.7-0.8-2.6-1.2c-2.6-1.2-5.2-2.5-7.7-2.8c-2.4-0.3-4.4,0.2-6,1.3c0-0.1,0.1-5.6,5.9-5.1c0.2,0,0.4,0.1,0.7,0.1
			c0.3,0.9,1.1,1.6,2.2,1.6c0.5,0,1-0.2,1.4-0.5c1.1,0.5,2.3,1.1,3.4,1.6c2.5,1.2,5,2.5,7.4,2.9c1.3,0.2,3.1,0.3,5-1
			c0.1-0.1,0.2-0.1,0.3-0.2C30.1,15.9,30.1,21,24.9,20.5z M25.5,14.7c-2-0.3-4.4-1.5-6.7-2.7c-1.3-0.6-2.6-1.3-3.9-1.8
			c-0.3-1-1.1-1.7-2.2-1.7c-0.6,0-1.1,0.2-1.5,0.6C10.9,9,10.6,9,10.4,9c-2.5-0.2-3.9,0.1-5.7,1.4c0,0-0.1-5.4,5.7-5.2
			c2.4,0.1,5.3,1.6,8,3.1c3,1.6,6,3.2,8.6,3.2c1.4,0,2.7-0.5,3.7-1.4C30.8,10.1,30.4,15.5,25.5,14.7z"/>
		<path d="M23.6,20.3c0.1,0.2,0.1,0.5,0.1,0.7c0,0.7-0.3,1.3-0.8,1.7c0,0,0,0,0,0c0.5,0.1,0.9,0.2,1.4,0.2c0,0,0,0,0,0
			c0.2-0.4,0.4-0.8,0.4-1.3c0-0.4-0.1-0.9-0.4-1.2C24.1,20.4,23.9,20.4,23.6,20.3L23.6,20.3z"/>
		<path d="M14.9,10.2c0.1,0.2,0.1,0.4,0.1,0.6c0,0.8-0.4,1.4-0.9,1.8c0,0,0,0,0,0c0.4,0.2,0.8,0.4,1.2,0.5c0.5-0.4,0.8-1,0.8-1.7
			c0-0.3-0.1-0.5-0.1-0.8C15.5,10.5,15.2,10.3,14.9,10.2C14.9,10.2,14.9,10.2,14.9,10.2z"/>
	</g>
	<g>
		<g>
			<g id="TYPE_9_">
				<polygon fill="#FFFFFF" points="73.7,22.2 75.1,10.5 70.3,10.5 70.6,8 82.7,8 82.4,10.5 77.6,10.5 76.2,22.2 				"/>
				<path fill="#FFFFFF" d="M121.3,22.2l0.2-1.3c0.2-1.4-0.3-2.7-1.3-3.6c0,0-0.1,0-0.1,0c-0.1,0-0.2,0-0.3,0h-4.4l-0.6,4.8h-2.6
					L113.9,8h7c1.2,0,2.4,0.5,3.1,1.4c0.8,0.9,1.1,2.1,1,3.3c-0.2,1.4-0.9,2.7-2.1,3.6l0,0l0,0c0.9,1.3,1.3,2.9,1.1,4.6l-0.2,1.3
					H121.3z M115.7,14.8h4.4c1.2,0,2.3-1,2.4-2.1c0.1-0.6-0.1-1.1-0.5-1.5c-0.4-0.4-0.9-0.6-1.4-0.6h-4.4L115.7,14.8z"/>
				<path fill="#FFFFFF" d="M106.5,22.2l0.2-1.3c0.2-1.7-0.6-3.4-2.1-4.1c-1,0.4-2.1,0.6-3.1,0.6c-0.1,0-0.1,0-0.2,0l-0.1,0l-0.1,0
					l-0.6,4.8H98L99.7,8h2.6l-0.8,6.8l0.2,0c0.1,0,0.1,0,0.2,0c3.1,0,5.9-2.5,6.2-5.6l0.2-1.3h2.6l-0.2,1.3c-0.3,2.3-1.5,4.5-3.4,6
					l-0.1,0l0,0c1.5,1.4,2.3,3.4,2,5.6l-0.2,1.3H106.5z"/>
				<polygon fill="#FFFFFF" points="155.5,22.2 157.2,8 159.7,8 158,22.2 				"/>
				<path fill="#FFFFFF" d="M163.1,8l-1.7,14c-0.2,2.1-2.2,3.8-4.2,3.8l-0.3,2.6c3.5,0,6.7-2.9,7.1-6.4l1.7-14H163.1z"/>
				<path fill="#FFFFFF" d="M136.4,22.2l0.4-3.5h-6.7l-0.4,3.5h-2.6l1-8.3c0.4-3.3,3.4-5.9,6.6-5.9c1.6,0,3,0.6,4,1.7
					c1,1.1,1.4,2.6,1.2,4.2l-1,8.3H136.4z M134.4,10.5c-1.8,0-3.5,1.5-3.8,3.3l-0.3,2.3h6.7l0.3-2.2c0.1-0.9-0.1-1.7-0.7-2.4
					C136.1,10.9,135.3,10.5,134.4,10.5z"/>
				<path fill="#FFFFFF" d="M176.4,22.2l0.4-3.5h-6.7l-0.4,3.5h-2.6l1-8.3c0.4-3.3,3.4-5.9,6.6-5.9c1.6,0,3,0.6,4,1.7
					c1,1.1,1.4,2.6,1.2,4.2l-1,8.3H176.4z M174.4,10.5c-1.8,0-3.5,1.5-3.7,3.3l-0.3,2.3h6.7l0.3-2.2c0.1-0.9-0.1-1.7-0.7-2.4
					C176.1,10.9,175.3,10.5,174.4,10.5z"/>
				<path fill="#FFFFFF" d="M147.5,22.2c-1.6,0-3-0.6-4-1.7c-1-1.1-1.4-2.6-1.2-4.2l0.3-2.4c0.2-1.6,1-3.1,2.2-4.2
					c1.3-1.1,2.8-1.7,4.4-1.7c1.6,0,3,0.6,4,1.7l0.8,0.9l-2,1.8l-0.8-0.9c-0.6-0.6-1.4-1-2.3-1c-0.9,0-1.8,0.3-2.5,1
					c-0.7,0.6-1.2,1.5-1.3,2.4l-0.3,2.4c-0.1,0.9,0.1,1.7,0.7,2.4c0.6,0.6,1.4,1,2.3,1c0.9,0,1.8-0.3,2.5-1l1-0.9l1.6,1.8l-1,0.9
					C150.6,21.6,149.1,22.2,147.5,22.2z"/>
				<path fill="#FFFFFF" d="M89.1,22.2c-1.6,0-3-0.6-4-1.7c-1-1.1-1.4-2.6-1.2-4.2l0.3-2.4c0.2-1.6,1-3.1,2.2-4.2
					C87.6,8.6,89.2,8,90.8,8c1.6,0,3,0.6,4,1.7c1,1.1,1.4,2.6,1.2,4.2l-0.3,2.4c-0.2,1.6-1,3.1-2.2,4.2
					C92.2,21.6,90.6,22.2,89.1,22.2z M90.4,10.5c-0.9,0-1.8,0.3-2.5,1c-0.7,0.6-1.2,1.5-1.3,2.4l-0.3,2.4c-0.1,0.9,0.1,1.7,0.7,2.4
					c0.6,0.6,1.4,1,2.3,1c0.9,0,1.8-0.3,2.5-1c0.7-0.6,1.2-1.5,1.3-2.4l0.3-2.4c0.1-0.9-0.1-1.7-0.7-2.4
					C92.1,10.9,91.3,10.5,90.4,10.5z"/>
				<polygon fill="#FFFFFF" points="56.5,22.2 58.2,8 67.9,8 67.6,10.5 60.4,10.5 60,13.8 66.4,13.8 66.1,16.4 59.7,16.4 59.3,19.7 
					66.5,19.7 66.2,22.2 				"/>
				<polygon fill="#FFFFFF" points="43.9,12.8 42.8,22.2 40.2,22.2 41.9,8 44.1,8 51.1,17.4 52.2,8 54.8,8 53.1,22.2 50.9,22.2 				
					"/>
			</g>
			<g id="MARK_21_">
				<linearGradient id="MARK_1_" gradientUnits="userSpaceOnUse" x1="0" y1="14.729" x2="34.1196" y2="14.729">
					<stop  offset="0" style="stop-color:#F8AE3C"/>
					<stop  offset="0.3906" style="stop-color:#F8AA32"/>
					<stop  offset="0.756" style="stop-color:#F49922"/>
					<stop  offset="1" style="stop-color:#F3921B"/>
				</linearGradient>
				<path id="MARK_22_" fill="url(#MARK_1_)" d="M31.7,1.7l-0.3,2.2h0c-0.4,2-1.6,3.4-2.7,3.9c-2.2,1-5.6-0.8-8.9-2.6
					c-3-1.6-6.1-3.3-9-3.4c-2.4-0.1-4.4,0.6-6,1.9c-1.4,1.2-2.3,3-2.5,5L0,27.7h2.4l0.2-1.6c0.3-1.6,1.6-2.7,2.6-3.2
					c2.5-1.1,6.3,0.5,9.9,2.1c2.9,1.3,6,2.6,8.7,2.7c0.2,0,0.4,0,0.5,0c1.9,0,3.6-0.6,4.8-1.7c1.4-1.2,2.2-3,2.5-5.2l2.3-19.2H31.7z
					 M24.3,25.4c-2.3-0.1-5.2-1.3-7.9-2.5c-4.2-1.8-8.2-3.7-11.9-2C4,21,3.6,21.3,3.2,21.6c0-0.1,0.2-5.8,6.1-5
					c2.2,0.3,4.7,1.5,7.1,2.6c0.9,0.4,1.9,0.9,2.9,1.3c0.2,1.1,1.1,1.9,2.2,1.9c0.6,0,1.1-0.2,1.5-0.6c0.5,0.1,0.9,0.2,1.4,0.2
					c1.2,0.1,3,0.2,5-1.2C29.3,20.9,29.4,25.5,24.3,25.4z M24.9,19.5c-0.4,0-0.9-0.1-1.3-0.2c-0.3-0.9-1.1-1.5-2.1-1.5
					c-0.5,0-0.9,0.1-1.2,0.4c-0.9-0.4-1.7-0.8-2.6-1.2c-2.6-1.2-5.2-2.5-7.7-2.8c-2.4-0.3-4.4,0.2-6,1.3c0-0.1,0.1-5.6,5.9-5.1
					c0.2,0,0.4,0.1,0.7,0.1c0.3,0.9,1.1,1.6,2.2,1.6c0.5,0,1-0.2,1.4-0.5c1.1,0.5,2.3,1.1,3.4,1.6c2.5,1.2,5,2.5,7.4,2.9
					c1.3,0.2,3.1,0.3,5-1c0.1-0.1,0.2-0.1,0.3-0.2C30.1,14.9,30.1,20,24.9,19.5z M25.5,13.7c-2-0.3-4.4-1.5-6.7-2.7
					c-1.3-0.6-2.6-1.3-3.9-1.8c-0.3-1-1.1-1.7-2.2-1.7c-0.6,0-1.1,0.2-1.5,0.6C10.9,8,10.6,8,10.4,8C7.8,7.8,6.5,8.1,4.7,9.4
					c0,0-0.1-5.4,5.7-5.2c2.4,0.1,5.3,1.6,8,3.1c3,1.6,6,3.2,8.6,3.2c1.4,0,2.7-0.5,3.7-1.4C30.8,9.1,30.4,14.5,25.5,13.7z"/>
				<g id="SHADING_10_">
					<path fill="#CD7113" d="M23.6,19.3c0.1,0.2,0.1,0.5,0.1,0.7c0,0.7-0.3,1.3-0.8,1.7c0,0,0,0,0,0c0.5,0.1,0.9,0.2,1.4,0.2
						c0,0,0,0,0,0c0.2-0.4,0.4-0.8,0.4-1.3c0-0.4-0.1-0.9-0.4-1.2C24.1,19.4,23.9,19.4,23.6,19.3L23.6,19.3z"/>
					<path fill="#D17519" d="M14.9,9.2C14.9,9.4,15,9.6,15,9.8c0,0.8-0.4,1.4-0.9,1.8c0,0,0,0,0,0c0.4,0.2,0.8,0.4,1.2,0.5
						c0.5-0.4,0.8-1,0.8-1.7c0-0.3-0.1-0.5-0.1-0.8C15.5,9.5,15.2,9.3,14.9,9.2C14.9,9.2,14.9,9.2,14.9,9.2z"/>
				</g>
			</g>
		</g>
	</g>
</g>
<g>
</g>
<g>
</g>
<g>
</g>
<g>
</g>
<g>
</g>
<g>
</g>
</svg>
